<svg fill="none" height="21" width="22" xmlns="http://www.w3.org/2000/svg"><path clip-rule="evenodd" d="M10.765 0C4.82 0 0 4.82 0 10.766c0 4.757 3.084 8.791 7.363 10.215.538.1.734-.233.734-.519 0-.255-.009-.932-.014-1.83-2.995.65-3.626-1.444-3.626-1.444-.49-1.244-1.196-1.575-1.196-1.575-.978-.667.074-.654.074-.654 1.08.076 1.649 1.11 1.649 1.11.96 1.644 2.52 1.17 3.133.894.098-.696.376-1.17.684-1.44-2.39-.27-4.904-1.195-4.904-5.32 0-1.175.42-2.137 1.108-2.889-.11-.272-.48-1.367.106-2.849 0 0 .903-.29 2.96 1.104.859-.24 1.78-.358 2.695-.363.915.005 1.836.123 2.696.363 2.055-1.393 2.957-1.104 2.957-1.104.588 1.482.218 2.577.108 2.85.69.751 1.106 1.713 1.106 2.888 0 4.136-2.517 5.046-4.915 5.312.386.333.73.99.73 1.994 0 1.439-.013 2.6-.013 2.953 0 .288.194.623.74.518 4.275-1.427 7.357-5.459 7.357-10.214C21.532 4.82 16.712 0 10.765 0z" fill="#000" fill-rule="evenodd"/></svg>