<svg fill="none" height="21" width="21" xmlns="http://www.w3.org/2000/svg"><path d="M18.9 0H2.1C.945 0 0 .945 0 2.1v16.8C0 20.055.945 21 2.1 21h16.8c1.155 0 2.1-.945 2.1-2.1V2.1C21 .945 20.055 0 18.9 0zM6.3 17.85H3.15V8.4H6.3zM4.725 6.615c-1.05 0-1.89-.84-1.89-1.89s.84-1.89 1.89-1.89 1.89.84 1.89 1.89-.84 1.89-1.89 1.89zM17.85 17.85H14.7v-5.565c0-.84-.735-1.575-1.575-1.575s-1.575.735-1.575 1.575v5.565H8.4V8.4h3.15v1.26c.525-.84 1.68-1.47 2.625-1.47 1.995 0 3.675 1.68 3.675 3.675z" fill="#000"/></svg>